          <svg xmlns="http://www.w3.org/2000/svg" width="16" height="15" viewBox="0 0 16 15" fill="none" class="injected-svg" data-src="/star.svg" xmlns:xlink="http://www.w3.org/1999/xlink">
            <path
              d="M7.77582 1.14891C7.86752 0.963099 8.13248 0.963097 8.22418 1.14891L9.73981 4.21991C9.99472 4.73641 10.4875 5.0944 11.0575 5.17723L14.4465 5.66969C14.6516 5.69948 14.7334 5.95147 14.585 6.09611L12.1327 8.48655C11.7203 8.88859 11.5321 9.46784 11.6294 10.0355L12.2083 13.4109C12.2434 13.6151 12.029 13.7708 11.8456 13.6744L8.81435 12.0808C8.30453 11.8128 7.69547 11.8128 7.18565 12.0808L4.1544 13.6744C3.97099 13.7708 3.75663 13.6151 3.79166 13.4109L4.37058 10.0355C4.46795 9.46783 4.27974 8.88859 3.86729 8.48655L1.41495 6.09611C1.26657 5.95148 1.34845 5.69948 1.5535 5.66968L4.94255 5.17723C5.51254 5.0944 6.00528 4.73641 6.26019 4.21991L7.77582 1.14891Z"
              stroke="white"
              stroke-width="1.5"
            ></path>
          </svg>
